<?xml version="1.0"?>
<svg width="480" height="280" xmlns="http://www.w3.org/2000/svg" xmlns:svg="http://www.w3.org/2000/svg">
 <!-- Created with SVG-edit - https://github.com/SVG-Edit/svgedit-->
 <g class="layer">
  <title>Layer 1</title>
  <text fill="#ff7f00" font-family="Monospace" font-size="24" font-weight="bold" id="svg_2" stroke="#000000" stroke-dasharray="null" stroke-linecap="null" stroke-linejoin="null" stroke-width="0" text-anchor="middle" transform="matrix(11.0403 0 0 -11.592 -439.743 1437.15)" x="47.95175" xml:space="preserve" y="121.69628">C</text>
  <text fill="#003f7f" font-family="Cursive" font-size="24" font-weight="bold" id="svg_3" stroke="#000000" stroke-dasharray="null" stroke-linecap="null" stroke-linejoin="null" stroke-width="0" text-anchor="middle" transform="rotate(89.589 219.284 110.087) matrix(14.33 0 0 5.98794 -3326.16 -396.175)" x="247.43007" xml:space="preserve" y="94.25387">E</text>
  <text fill="#007f7f" font-family="Fantasy" font-size="24" font-style="normal" font-weight="bold" id="svg_4" stroke="#000000" stroke-dasharray="null" stroke-linecap="null" stroke-linejoin="null" stroke-width="0" text-anchor="middle" transform="matrix(6.9205 0 0 9.35532 -1840.67 -883.697)" x="309.561283" xml:space="preserve" y="116.512684">I</text>
  <rect fill="#ffffff" height="11" id="svg_7" stroke="#fcf9f9" stroke-dasharray="null" stroke-linecap="null" stroke-linejoin="null" stroke-width="null" width="20" x="289.5" y="35.5"/>
  <rect fill="#007f7f" height="11.2" id="svg_13" stroke="#007f7f" stroke-dasharray="null" stroke-linecap="null" stroke-linejoin="null" stroke-width="null" width="2.600312" x="298.25" y="35.35"/>
  <text fill="#007f3f" font-family="Fantasy" font-size="24" font-weight="normal" id="svg_14" stroke="#000000" stroke-dasharray="null" stroke-linecap="null" stroke-linejoin="null" stroke-width="0" text-anchor="middle" transform="matrix(9.47344 0 0 9.52974 -3048.85 -688.544)" x="363.01624" xml:space="preserve" y="93.85032">V</text>
  <rect fill="#007f00" height="45" id="svg_15" stroke="#007f00" stroke-dasharray="null" stroke-linecap="null" stroke-linejoin="null" stroke-width="null" width="424.99997" x="28.50001" y="214.5"/>
  <text fill="#ffffff" font-family="Sans-serif" font-size="24" id="svg_17" stroke="#007f00" stroke-dasharray="null" stroke-linecap="null" stroke-linejoin="null" stroke-width="0" text-anchor="middle" transform="matrix(3.36471 0 0 1.36364 -113.717 -98.0909)" x="107.716781" xml:space="preserve" y="253.500085">Asociados</text>
  <polygon fill="#ffffff" id="svg_18" points="375.5,126.5 375.5,126.5 375.5,126.5 375.5,126.5 375.5,126.5 375.5,126.5 375.5,126.5 375.5,126.5 375.5,126.5 375.5,126.5 375.5,126.5 375.5,126.5 " stroke="#007f00" stroke-width="null"/>
  <polygon fill="#ffffff" id="svg_20" points="397.5,98.5 397.5,98.5 397.5,98.5 397.5,98.5 397.5,98.5 397.5,98.5 397.5,98.5 397.5,98.5 397.5,98.5 397.5,98.5 397.5,98.5 397.5,98.5 " stroke="#007f00" stroke-width="null"/>
  <polygon fill="#ffff00" id="svg_21" points="397.5,98.5 397.5,98.5 397.5,98.5 397.5,98.5 397.5,98.5 397.5,98.5 397.5,98.5 397.5,98.5 397.5,98.5 397.5,98.5 397.5,98.5 397.5,98.5 " stroke="#007f00" stroke-width="null"/>
 </g>
</svg>